<?xml version="1.0" encoding="utf-8" standalone="no"?>
<!DOCTYPE svg PUBLIC "-//W3C//DTD SVG 1.1//EN"
  "http://www.w3.org/Graphics/SVG/1.1/DTD/svg11.dtd">
<!-- Created with matplotlib (https://matplotlib.org/) -->
<svg height="345.6pt" version="1.1" viewBox="0 0 460.8 345.6" width="460.8pt" xmlns="http://www.w3.org/2000/svg" xmlns:xlink="http://www.w3.org/1999/xlink">
 <defs>
  <style type="text/css">
*{stroke-linecap:butt;stroke-linejoin:round;}
  </style>
 </defs>
 <g id="figure_1">
  <g id="patch_1">
   <path d="M 0 345.6 
L 460.8 345.6 
L 460.8 0 
L 0 0 
z
" style="fill:#ffffff;"/>
  </g>
  <g id="axes_1">
   <g id="patch_2">
    <path d="M 57.6 307.584 
L 414.72 307.584 
L 414.72 41.472 
L 57.6 41.472 
z
" style="fill:#ffffff;"/>
   </g>
   <g id="matplotlib.axis_1">
    <g id="xtick_1">
     <g id="line2d_1">
      <path clip-path="url(#p5f188683ed)" d="M 73.832727 307.584 
L 73.832727 41.472 
" style="fill:none;stroke:#b0b0b0;stroke-linecap:square;stroke-width:0.8;"/>
     </g>
     <g id="line2d_2">
      <defs>
       <path d="M 0 0 
L 0 3.5 
" id="m62e4e70c87" style="stroke:#000000;stroke-width:0.8;"/>
      </defs>
      <g>
       <use style="stroke:#000000;stroke-width:0.8;" x="73.832727" xlink:href="#m62e4e70c87" y="307.584"/>
      </g>
     </g>
     <g id="text_1">
      <!-- 0.0 -->
      <defs>
       <path d="M 56.984375 36.375 
Q 56.984375 16.796875 50.859375 7.640625 
Q 44.734375 -1.515625 31.84375 -1.515625 
Q 18.75 -1.515625 12.71875 7.765625 
Q 6.6875 17.046875 6.6875 36.28125 
Q 6.6875 55.671875 12.78125 64.921875 
Q 18.890625 74.171875 31.84375 74.171875 
Q 44.921875 74.171875 50.953125 64.765625 
Q 56.984375 55.375 56.984375 36.375 
z
M 44.140625 14.203125 
Q 45.84375 18.171875 46.453125 23.515625 
Q 47.078125 28.859375 47.078125 36.375 
Q 47.078125 43.796875 46.453125 49.265625 
Q 45.84375 54.734375 44.09375 58.546875 
Q 42.390625 62.3125 39.421875 64.203125 
Q 36.46875 66.109375 31.84375 66.109375 
Q 27.25 66.109375 24.234375 64.203125 
Q 21.234375 62.3125 19.484375 58.453125 
Q 17.828125 54.828125 17.21875 49.015625 
Q 16.609375 43.21875 16.609375 36.28125 
Q 16.609375 28.65625 17.140625 23.53125 
Q 17.671875 18.40625 19.4375 14.359375 
Q 21.046875 10.546875 24 8.546875 
Q 26.953125 6.546875 31.84375 6.546875 
Q 36.421875 6.546875 39.453125 8.453125 
Q 42.484375 10.359375 44.140625 14.203125 
z
" id="Verdana-48"/>
       <path d="M 24.03125 0 
L 12.359375 0 
L 12.359375 13.921875 
L 24.03125 13.921875 
z
" id="Verdana-46"/>
      </defs>
      <g transform="translate(65.656165 322.182437)scale(0.1 -0.1)">
       <use xlink:href="#Verdana-48"/>
       <use x="63.574219" xlink:href="#Verdana-46"/>
       <use x="99.951172" xlink:href="#Verdana-48"/>
      </g>
     </g>
    </g>
    <g id="xtick_2">
     <g id="line2d_3">
      <path clip-path="url(#p5f188683ed)" d="M 116.550431 307.584 
L 116.550431 41.472 
" style="fill:none;stroke:#b0b0b0;stroke-linecap:square;stroke-width:0.8;"/>
     </g>
     <g id="line2d_4">
      <g>
       <use style="stroke:#000000;stroke-width:0.8;" x="116.550431" xlink:href="#m62e4e70c87" y="307.584"/>
      </g>
     </g>
     <g id="text_2">
      <!-- 2.5 -->
      <defs>
       <path d="M 57.078125 0 
L 7.859375 0 
L 7.859375 10.203125 
Q 12.984375 14.59375 18.140625 18.984375 
Q 23.296875 23.390625 27.734375 27.734375 
Q 37.109375 36.8125 40.578125 42.15625 
Q 44.046875 47.515625 44.046875 53.71875 
Q 44.046875 59.375 40.3125 62.5625 
Q 36.578125 65.765625 29.890625 65.765625 
Q 25.4375 65.765625 20.265625 64.203125 
Q 15.09375 62.640625 10.15625 59.421875 
L 9.671875 59.421875 
L 9.671875 69.671875 
Q 13.140625 71.390625 18.921875 72.796875 
Q 24.703125 74.21875 30.125 74.21875 
Q 41.3125 74.21875 47.65625 68.8125 
Q 54 63.421875 54 54.203125 
Q 54 50.046875 52.953125 46.453125 
Q 51.90625 42.875 49.859375 39.65625 
Q 47.953125 36.625 45.390625 33.6875 
Q 42.828125 30.765625 39.15625 27.203125 
Q 33.9375 22.078125 28.359375 17.265625 
Q 22.796875 12.453125 17.96875 8.34375 
L 57.078125 8.34375 
z
" id="Verdana-50"/>
       <path d="M 56.5 23.09375 
Q 56.5 18.015625 54.640625 13.375 
Q 52.78125 8.734375 49.5625 5.5625 
Q 46.046875 2.15625 41.1875 0.3125 
Q 36.328125 -1.515625 29.9375 -1.515625 
Q 23.96875 -1.515625 18.453125 -0.265625 
Q 12.9375 0.984375 9.125 2.734375 
L 9.125 13.03125 
L 9.8125 13.03125 
Q 13.8125 10.5 19.1875 8.71875 
Q 24.5625 6.9375 29.734375 6.9375 
Q 33.203125 6.9375 36.453125 7.90625 
Q 39.703125 8.890625 42.234375 11.328125 
Q 44.390625 13.421875 45.484375 16.34375 
Q 46.578125 19.28125 46.578125 23.140625 
Q 46.578125 26.90625 45.28125 29.484375 
Q 44 32.078125 41.703125 33.640625 
Q 39.15625 35.5 35.515625 36.25 
Q 31.890625 37.015625 27.390625 37.015625 
Q 23.09375 37.015625 19.109375 36.421875 
Q 15.140625 35.84375 12.25 35.25 
L 12.25 72.703125 
L 56 72.703125 
L 56 64.15625 
L 21.6875 64.15625 
L 21.6875 44.828125 
Q 23.78125 45.015625 25.96875 45.109375 
Q 28.171875 45.21875 29.78125 45.21875 
Q 35.6875 45.21875 40.125 44.21875 
Q 44.578125 43.21875 48.296875 40.671875 
Q 52.203125 37.984375 54.34375 33.734375 
Q 56.5 29.5 56.5 23.09375 
z
" id="Verdana-53"/>
      </defs>
      <g transform="translate(108.373868 322.182437)scale(0.1 -0.1)">
       <use xlink:href="#Verdana-50"/>
       <use x="63.574219" xlink:href="#Verdana-46"/>
       <use x="99.951172" xlink:href="#Verdana-53"/>
      </g>
     </g>
    </g>
    <g id="xtick_3">
     <g id="line2d_5">
      <path clip-path="url(#p5f188683ed)" d="M 159.268134 307.584 
L 159.268134 41.472 
" style="fill:none;stroke:#b0b0b0;stroke-linecap:square;stroke-width:0.8;"/>
     </g>
     <g id="line2d_6">
      <g>
       <use style="stroke:#000000;stroke-width:0.8;" x="159.268134" xlink:href="#m62e4e70c87" y="307.584"/>
      </g>
     </g>
     <g id="text_3">
      <!-- 5.0 -->
      <g transform="translate(151.091571 322.182437)scale(0.1 -0.1)">
       <use xlink:href="#Verdana-53"/>
       <use x="63.574219" xlink:href="#Verdana-46"/>
       <use x="99.951172" xlink:href="#Verdana-48"/>
      </g>
     </g>
    </g>
    <g id="xtick_4">
     <g id="line2d_7">
      <path clip-path="url(#p5f188683ed)" d="M 201.985837 307.584 
L 201.985837 41.472 
" style="fill:none;stroke:#b0b0b0;stroke-linecap:square;stroke-width:0.8;"/>
     </g>
     <g id="line2d_8">
      <g>
       <use style="stroke:#000000;stroke-width:0.8;" x="201.985837" xlink:href="#m62e4e70c87" y="307.584"/>
      </g>
     </g>
     <g id="text_4">
      <!-- 7.5 -->
      <defs>
       <path d="M 57.28125 61.8125 
L 24.359375 0 
L 13.921875 0 
L 48.921875 64.15625 
L 7.515625 64.15625 
L 7.515625 72.703125 
L 57.28125 72.703125 
z
" id="Verdana-55"/>
      </defs>
      <g transform="translate(193.809275 322.182437)scale(0.1 -0.1)">
       <use xlink:href="#Verdana-55"/>
       <use x="63.574219" xlink:href="#Verdana-46"/>
       <use x="99.951172" xlink:href="#Verdana-53"/>
      </g>
     </g>
    </g>
    <g id="xtick_5">
     <g id="line2d_9">
      <path clip-path="url(#p5f188683ed)" d="M 244.703541 307.584 
L 244.703541 41.472 
" style="fill:none;stroke:#b0b0b0;stroke-linecap:square;stroke-width:0.8;"/>
     </g>
     <g id="line2d_10">
      <g>
       <use style="stroke:#000000;stroke-width:0.8;" x="244.703541" xlink:href="#m62e4e70c87" y="307.584"/>
      </g>
     </g>
     <g id="text_5">
      <!-- 10.0 -->
      <defs>
       <path d="M 52.9375 0 
L 13.578125 0 
L 13.578125 7.421875 
L 28.71875 7.421875 
L 28.71875 56.15625 
L 13.578125 56.15625 
L 13.578125 62.796875 
Q 16.65625 62.796875 20.171875 63.296875 
Q 23.6875 63.8125 25.484375 64.796875 
Q 27.734375 66.015625 29.03125 67.890625 
Q 30.328125 69.78125 30.515625 72.953125 
L 38.09375 72.953125 
L 38.09375 7.421875 
L 52.9375 7.421875 
z
" id="Verdana-49"/>
      </defs>
      <g transform="translate(233.348072 322.182437)scale(0.1 -0.1)">
       <use xlink:href="#Verdana-49"/>
       <use x="63.574219" xlink:href="#Verdana-48"/>
       <use x="127.148438" xlink:href="#Verdana-46"/>
       <use x="163.525391" xlink:href="#Verdana-48"/>
      </g>
     </g>
    </g>
    <g id="xtick_6">
     <g id="line2d_11">
      <path clip-path="url(#p5f188683ed)" d="M 287.421244 307.584 
L 287.421244 41.472 
" style="fill:none;stroke:#b0b0b0;stroke-linecap:square;stroke-width:0.8;"/>
     </g>
     <g id="line2d_12">
      <g>
       <use style="stroke:#000000;stroke-width:0.8;" x="287.421244" xlink:href="#m62e4e70c87" y="307.584"/>
      </g>
     </g>
     <g id="text_6">
      <!-- 12.5 -->
      <g transform="translate(276.065775 322.182437)scale(0.1 -0.1)">
       <use xlink:href="#Verdana-49"/>
       <use x="63.574219" xlink:href="#Verdana-50"/>
       <use x="127.148438" xlink:href="#Verdana-46"/>
       <use x="163.525391" xlink:href="#Verdana-53"/>
      </g>
     </g>
    </g>
    <g id="xtick_7">
     <g id="line2d_13">
      <path clip-path="url(#p5f188683ed)" d="M 330.138947 307.584 
L 330.138947 41.472 
" style="fill:none;stroke:#b0b0b0;stroke-linecap:square;stroke-width:0.8;"/>
     </g>
     <g id="line2d_14">
      <g>
       <use style="stroke:#000000;stroke-width:0.8;" x="330.138947" xlink:href="#m62e4e70c87" y="307.584"/>
      </g>
     </g>
     <g id="text_7">
      <!-- 15.0 -->
      <g transform="translate(318.783479 322.182437)scale(0.1 -0.1)">
       <use xlink:href="#Verdana-49"/>
       <use x="63.574219" xlink:href="#Verdana-53"/>
       <use x="127.148438" xlink:href="#Verdana-46"/>
       <use x="163.525391" xlink:href="#Verdana-48"/>
      </g>
     </g>
    </g>
    <g id="xtick_8">
     <g id="line2d_15">
      <path clip-path="url(#p5f188683ed)" d="M 372.856651 307.584 
L 372.856651 41.472 
" style="fill:none;stroke:#b0b0b0;stroke-linecap:square;stroke-width:0.8;"/>
     </g>
     <g id="line2d_16">
      <g>
       <use style="stroke:#000000;stroke-width:0.8;" x="372.856651" xlink:href="#m62e4e70c87" y="307.584"/>
      </g>
     </g>
     <g id="text_8">
      <!-- 17.5 -->
      <g transform="translate(361.501182 322.182437)scale(0.1 -0.1)">
       <use xlink:href="#Verdana-49"/>
       <use x="63.574219" xlink:href="#Verdana-55"/>
       <use x="127.148438" xlink:href="#Verdana-46"/>
       <use x="163.525391" xlink:href="#Verdana-53"/>
      </g>
     </g>
    </g>
    <g id="text_9">
     <!-- Generations -->
     <defs>
      <path d="M 70.40625 5.375 
Q 64.453125 2.640625 57.390625 0.609375 
Q 50.34375 -1.421875 43.75 -1.421875 
Q 35.25 -1.421875 28.171875 0.921875 
Q 21.09375 3.265625 16.109375 7.953125 
Q 11.078125 12.703125 8.34375 19.796875 
Q 5.609375 26.90625 5.609375 36.421875 
Q 5.609375 53.859375 15.796875 63.9375 
Q 25.984375 74.03125 43.75 74.03125 
Q 49.953125 74.03125 56.421875 72.53125 
Q 62.890625 71.046875 70.359375 67.484375 
L 70.359375 56 
L 69.484375 56 
Q 67.96875 57.171875 65.078125 59.078125 
Q 62.203125 60.984375 59.421875 62.25 
Q 56.0625 63.765625 51.78125 64.765625 
Q 47.515625 65.765625 42.09375 65.765625 
Q 29.890625 65.765625 22.78125 57.921875 
Q 15.671875 50.09375 15.671875 36.71875 
Q 15.671875 22.609375 23.09375 14.765625 
Q 30.515625 6.9375 43.3125 6.9375 
Q 48 6.9375 52.65625 7.859375 
Q 57.328125 8.796875 60.84375 10.25 
L 60.84375 28.078125 
L 41.359375 28.078125 
L 41.359375 36.578125 
L 70.40625 36.578125 
z
" id="Verdana-71"/>
      <path d="M 54.6875 26.3125 
L 14.5 26.3125 
Q 14.5 21.296875 16.015625 17.546875 
Q 17.53125 13.8125 20.171875 11.421875 
Q 22.703125 9.078125 26.1875 7.90625 
Q 29.6875 6.734375 33.890625 6.734375 
Q 39.453125 6.734375 45.09375 8.953125 
Q 50.734375 11.1875 53.125 13.328125 
L 53.609375 13.328125 
L 53.609375 3.328125 
Q 48.96875 1.375 44.140625 0.046875 
Q 39.3125 -1.265625 33.984375 -1.265625 
Q 20.40625 -1.265625 12.78125 6.078125 
Q 5.171875 13.421875 5.171875 26.953125 
Q 5.171875 40.328125 12.46875 48.1875 
Q 19.78125 56.0625 31.6875 56.0625 
Q 42.71875 56.0625 48.703125 49.609375 
Q 54.6875 43.171875 54.6875 31.296875 
z
M 45.75 33.34375 
Q 45.703125 40.578125 42.109375 44.53125 
Q 38.53125 48.484375 31.203125 48.484375 
Q 23.828125 48.484375 19.453125 44.140625 
Q 15.09375 39.796875 14.5 33.34375 
z
" id="Verdana-101"/>
      <path d="M 54.640625 0 
L 45.453125 0 
L 45.453125 31.0625 
Q 45.453125 34.8125 45.015625 38.109375 
Q 44.578125 41.40625 43.40625 43.265625 
Q 42.1875 45.3125 39.890625 46.3125 
Q 37.59375 47.3125 33.9375 47.3125 
Q 30.171875 47.3125 26.0625 45.453125 
Q 21.96875 43.609375 18.21875 40.71875 
L 18.21875 0 
L 9.03125 0 
L 9.03125 54.546875 
L 18.21875 54.546875 
L 18.21875 48.484375 
Q 22.515625 52.046875 27.09375 54.046875 
Q 31.6875 56.0625 36.53125 56.0625 
Q 45.359375 56.0625 50 50.734375 
Q 54.640625 45.40625 54.640625 35.40625 
z
" id="Verdana-110"/>
      <path d="M 43.0625 44.53125 
L 42.578125 44.53125 
Q 40.53125 45.015625 38.59375 45.234375 
Q 36.671875 45.453125 34.03125 45.453125 
Q 29.78125 45.453125 25.828125 43.578125 
Q 21.875 41.703125 18.21875 38.71875 
L 18.21875 0 
L 9.03125 0 
L 9.03125 54.546875 
L 18.21875 54.546875 
L 18.21875 46.484375 
Q 23.6875 50.875 27.859375 52.703125 
Q 32.03125 54.546875 36.375 54.546875 
Q 38.765625 54.546875 39.84375 54.421875 
Q 40.921875 54.296875 43.0625 53.953125 
z
" id="Verdana-114"/>
      <path d="M 51.421875 0 
L 42.28125 0 
L 42.28125 5.8125 
Q 41.0625 4.984375 38.984375 3.484375 
Q 36.921875 2 34.96875 1.125 
Q 32.671875 0 29.6875 -0.75 
Q 26.703125 -1.515625 22.703125 -1.515625 
Q 15.328125 -1.515625 10.203125 3.359375 
Q 5.078125 8.25 5.078125 15.828125 
Q 5.078125 22.015625 7.734375 25.84375 
Q 10.40625 29.6875 15.328125 31.890625 
Q 20.3125 34.078125 27.296875 34.859375 
Q 34.28125 35.640625 42.28125 36.03125 
L 42.28125 37.453125 
Q 42.28125 40.578125 41.1875 42.625 
Q 40.09375 44.671875 38.03125 45.84375 
Q 36.078125 46.96875 33.34375 47.359375 
Q 30.609375 47.75 27.640625 47.75 
Q 24.03125 47.75 19.578125 46.796875 
Q 15.140625 45.84375 10.40625 44.046875 
L 9.90625 44.046875 
L 9.90625 53.375 
Q 12.59375 54.109375 17.671875 54.984375 
Q 22.75 55.859375 27.6875 55.859375 
Q 33.453125 55.859375 37.71875 54.90625 
Q 42 53.953125 45.125 51.65625 
Q 48.1875 49.421875 49.796875 45.84375 
Q 51.421875 42.28125 51.421875 37.015625 
z
M 42.28125 13.421875 
L 42.28125 28.609375 
Q 38.09375 28.375 32.390625 27.875 
Q 26.703125 27.390625 23.390625 26.46875 
Q 19.4375 25.34375 16.984375 22.96875 
Q 14.546875 20.609375 14.546875 16.453125 
Q 14.546875 11.765625 17.375 9.390625 
Q 20.21875 7.03125 26.03125 7.03125 
Q 30.859375 7.03125 34.859375 8.90625 
Q 38.875 10.796875 42.28125 13.421875 
z
" id="Verdana-97"/>
      <path d="M 37.359375 0.484375 
Q 34.765625 -0.203125 31.703125 -0.640625 
Q 28.65625 -1.078125 26.265625 -1.078125 
Q 17.921875 -1.078125 13.578125 3.40625 
Q 9.234375 7.90625 9.234375 17.828125 
L 9.234375 46.828125 
L 3.03125 46.828125 
L 3.03125 54.546875 
L 9.234375 54.546875 
L 9.234375 70.21875 
L 18.40625 70.21875 
L 18.40625 54.546875 
L 37.359375 54.546875 
L 37.359375 46.828125 
L 18.40625 46.828125 
L 18.40625 21.96875 
Q 18.40625 17.671875 18.59375 15.25 
Q 18.796875 12.84375 19.96875 10.75 
Q 21.046875 8.796875 22.921875 7.890625 
Q 24.8125 6.984375 28.65625 6.984375 
Q 30.90625 6.984375 33.34375 7.640625 
Q 35.796875 8.296875 36.859375 8.734375 
L 37.359375 8.734375 
z
" id="Verdana-116"/>
      <path d="M 18.890625 63.671875 
L 8.546875 63.671875 
L 8.546875 73.1875 
L 18.890625 73.1875 
z
M 18.3125 0 
L 9.125 0 
L 9.125 54.546875 
L 18.3125 54.546875 
z
" id="Verdana-105"/>
      <path d="M 55.515625 27.25 
Q 55.515625 13.921875 48.671875 6.203125 
Q 41.84375 -1.515625 30.375 -1.515625 
Q 18.796875 -1.515625 11.984375 6.203125 
Q 5.171875 13.921875 5.171875 27.25 
Q 5.171875 40.578125 11.984375 48.3125 
Q 18.796875 56.0625 30.375 56.0625 
Q 41.84375 56.0625 48.671875 48.3125 
Q 55.515625 40.578125 55.515625 27.25 
z
M 46.046875 27.25 
Q 46.046875 37.84375 41.890625 42.984375 
Q 37.75 48.140625 30.375 48.140625 
Q 22.90625 48.140625 18.78125 42.984375 
Q 14.65625 37.84375 14.65625 27.25 
Q 14.65625 17 18.796875 11.6875 
Q 22.953125 6.390625 30.375 6.390625 
Q 37.703125 6.390625 41.875 11.640625 
Q 46.046875 16.890625 46.046875 27.25 
z
" id="Verdana-111"/>
      <path d="M 48 15.71875 
Q 48 8.25 41.8125 3.46875 
Q 35.640625 -1.3125 24.953125 -1.3125 
Q 18.890625 -1.3125 13.84375 0.125 
Q 8.796875 1.5625 5.375 3.265625 
L 5.375 13.578125 
L 5.859375 13.578125 
Q 10.203125 10.296875 15.515625 8.375 
Q 20.84375 6.453125 25.734375 6.453125 
Q 31.78125 6.453125 35.203125 8.40625 
Q 38.625 10.359375 38.625 14.546875 
Q 38.625 17.78125 36.765625 19.4375 
Q 34.90625 21.09375 29.640625 22.265625 
Q 27.6875 22.703125 24.53125 23.28125 
Q 21.390625 23.875 18.796875 24.5625 
Q 11.625 26.46875 8.609375 30.15625 
Q 5.609375 33.84375 5.609375 39.203125 
Q 5.609375 42.578125 7 45.546875 
Q 8.40625 48.53125 11.234375 50.875 
Q 13.96875 53.171875 18.1875 54.515625 
Q 22.40625 55.859375 27.640625 55.859375 
Q 32.515625 55.859375 37.515625 54.65625 
Q 42.53125 53.46875 45.84375 51.765625 
L 45.84375 41.9375 
L 45.359375 41.9375 
Q 41.84375 44.53125 36.8125 46.3125 
Q 31.78125 48.09375 26.953125 48.09375 
Q 21.921875 48.09375 18.453125 46.15625 
Q 14.984375 44.234375 14.984375 40.4375 
Q 14.984375 37.0625 17.09375 35.359375 
Q 19.140625 33.640625 23.734375 32.5625 
Q 26.265625 31.984375 29.40625 31.390625 
Q 32.5625 30.8125 34.671875 30.328125 
Q 41.0625 28.859375 44.53125 25.296875 
Q 48 21.6875 48 15.71875 
z
" id="Verdana-115"/>
     </defs>
     <g transform="translate(205.879531 335.793375)scale(0.1 -0.1)">
      <use xlink:href="#Verdana-71"/>
      <use x="77.539062" xlink:href="#Verdana-101"/>
      <use x="137.109375" xlink:href="#Verdana-110"/>
      <use x="200.390625" xlink:href="#Verdana-101"/>
      <use x="259.960938" xlink:href="#Verdana-114"/>
      <use x="302.621094" xlink:href="#Verdana-97"/>
      <use x="362.679688" xlink:href="#Verdana-116"/>
      <use x="402.083984" xlink:href="#Verdana-105"/>
      <use x="429.525391" xlink:href="#Verdana-111"/>
      <use x="490.21875" xlink:href="#Verdana-110"/>
      <use x="553.5" xlink:href="#Verdana-115"/>
     </g>
    </g>
   </g>
   <g id="matplotlib.axis_2">
    <g id="ytick_1">
     <g id="line2d_17">
      <path clip-path="url(#p5f188683ed)" d="M 57.6 307.551319 
L 414.72 307.551319 
" style="fill:none;stroke:#b0b0b0;stroke-linecap:square;stroke-width:0.8;"/>
     </g>
     <g id="line2d_18">
      <defs>
       <path d="M 0 0 
L -3.5 0 
" id="mf7a21b576a" style="stroke:#000000;stroke-width:0.8;"/>
      </defs>
      <g>
       <use style="stroke:#000000;stroke-width:0.8;" x="57.6" xlink:href="#mf7a21b576a" y="307.551319"/>
      </g>
     </g>
     <g id="text_10">
      <!-- $\mathdefault{-10^{4}}$ -->
      <defs>
       <path d="M 71.09375 27.9375 
L 10.75 27.9375 
L 10.75 35.75 
L 71.09375 35.75 
z
" id="Verdana-8722"/>
       <path d="M 58.734375 20.453125 
L 47.953125 20.453125 
L 47.953125 0 
L 38.578125 0 
L 38.578125 20.453125 
L 3.765625 20.453125 
L 3.765625 31.6875 
L 38.96875 72.703125 
L 47.953125 72.703125 
L 47.953125 28.265625 
L 58.734375 28.265625 
z
M 38.578125 28.265625 
L 38.578125 61.078125 
L 10.40625 28.265625 
z
" id="Verdana-52"/>
      </defs>
      <g transform="translate(24.8 311.350538)scale(0.1 -0.1)">
       <use transform="translate(0 0.925)" xlink:href="#Verdana-8722"/>
       <use transform="translate(81.835938 0.925)" xlink:href="#Verdana-49"/>
       <use transform="translate(145.410156 0.925)" xlink:href="#Verdana-48"/>
       <use transform="translate(209.938945 39.107813)scale(0.7)" xlink:href="#Verdana-52"/>
      </g>
     </g>
    </g>
    <g id="ytick_2">
     <g id="line2d_19">
      <path clip-path="url(#p5f188683ed)" d="M 57.6 278.747095 
L 414.72 278.747095 
" style="fill:none;stroke:#b0b0b0;stroke-linecap:square;stroke-width:0.8;"/>
     </g>
     <g id="line2d_20">
      <g>
       <use style="stroke:#000000;stroke-width:0.8;" x="57.6" xlink:href="#mf7a21b576a" y="278.747095"/>
      </g>
     </g>
     <g id="text_11">
      <!-- $\mathdefault{-10^{3}}$ -->
      <defs>
       <path d="M 50.6875 35.015625 
Q 53.03125 32.90625 54.546875 29.734375 
Q 56.0625 26.5625 56.0625 21.53125 
Q 56.0625 16.546875 54.25 12.390625 
Q 52.4375 8.25 49.171875 5.171875 
Q 45.515625 1.765625 40.546875 0.125 
Q 35.59375 -1.515625 29.6875 -1.515625 
Q 23.640625 -1.515625 17.78125 -0.0625 
Q 11.921875 1.375 8.15625 3.078125 
L 8.15625 13.28125 
L 8.890625 13.28125 
Q 13.03125 10.546875 18.640625 8.734375 
Q 24.265625 6.9375 29.5 6.9375 
Q 32.5625 6.9375 36.03125 7.953125 
Q 39.5 8.984375 41.65625 10.984375 
Q 43.890625 13.140625 44.984375 15.71875 
Q 46.09375 18.3125 46.09375 22.265625 
Q 46.09375 26.171875 44.84375 28.734375 
Q 43.609375 31.296875 41.40625 32.765625 
Q 39.203125 34.28125 36.078125 34.84375 
Q 32.953125 35.40625 29.34375 35.40625 
L 24.953125 35.40625 
L 24.953125 43.5 
L 28.375 43.5 
Q 35.796875 43.5 40.203125 46.59375 
Q 44.625 49.703125 44.625 55.671875 
Q 44.625 58.296875 43.5 60.265625 
Q 42.390625 62.25 40.375 63.53125 
Q 38.28125 64.796875 35.890625 65.28125 
Q 33.5 65.765625 30.46875 65.765625 
Q 25.828125 65.765625 20.59375 64.109375 
Q 15.375 62.453125 10.75 59.421875 
L 10.25 59.421875 
L 10.25 69.625 
Q 13.71875 71.34375 19.5 72.78125 
Q 25.296875 74.21875 30.71875 74.21875 
Q 36.03125 74.21875 40.078125 73.234375 
Q 44.140625 72.265625 47.40625 70.125 
Q 50.921875 67.78125 52.734375 64.453125 
Q 54.546875 61.140625 54.546875 56.6875 
Q 54.546875 50.640625 50.265625 46.125 
Q 46 41.609375 40.1875 40.4375 
L 40.1875 39.75 
Q 42.53125 39.359375 45.546875 38.109375 
Q 48.578125 36.859375 50.6875 35.015625 
z
" id="Verdana-51"/>
      </defs>
      <g transform="translate(24.8 282.546314)scale(0.1 -0.1)">
       <use transform="translate(0 0.864063)" xlink:href="#Verdana-8722"/>
       <use transform="translate(81.835938 0.864063)" xlink:href="#Verdana-49"/>
       <use transform="translate(145.410156 0.864063)" xlink:href="#Verdana-48"/>
       <use transform="translate(209.938945 39.046875)scale(0.7)" xlink:href="#Verdana-51"/>
      </g>
     </g>
    </g>
    <g id="ytick_3">
     <g id="line2d_21">
      <path clip-path="url(#p5f188683ed)" d="M 57.6 249.942871 
L 414.72 249.942871 
" style="fill:none;stroke:#b0b0b0;stroke-linecap:square;stroke-width:0.8;"/>
     </g>
     <g id="line2d_22">
      <g>
       <use style="stroke:#000000;stroke-width:0.8;" x="57.6" xlink:href="#mf7a21b576a" y="249.942871"/>
      </g>
     </g>
     <g id="text_12">
      <!-- $\mathdefault{-10^{2}}$ -->
      <g transform="translate(24.8 253.74209)scale(0.1 -0.1)">
       <use transform="translate(0 0.864063)" xlink:href="#Verdana-8722"/>
       <use transform="translate(81.835938 0.864063)" xlink:href="#Verdana-49"/>
       <use transform="translate(145.410156 0.864063)" xlink:href="#Verdana-48"/>
       <use transform="translate(209.938945 39.046875)scale(0.7)" xlink:href="#Verdana-50"/>
      </g>
     </g>
    </g>
    <g id="ytick_4">
     <g id="line2d_23">
      <path clip-path="url(#p5f188683ed)" d="M 57.6 221.138647 
L 414.72 221.138647 
" style="fill:none;stroke:#b0b0b0;stroke-linecap:square;stroke-width:0.8;"/>
     </g>
     <g id="line2d_24">
      <g>
       <use style="stroke:#000000;stroke-width:0.8;" x="57.6" xlink:href="#mf7a21b576a" y="221.138647"/>
      </g>
     </g>
     <g id="text_13">
      <!-- $\mathdefault{-10^{1}}$ -->
      <g transform="translate(24.8 224.937866)scale(0.1 -0.1)">
       <use transform="translate(0 0.75)" xlink:href="#Verdana-8722"/>
       <use transform="translate(81.835938 0.75)" xlink:href="#Verdana-49"/>
       <use transform="translate(145.410156 0.75)" xlink:href="#Verdana-48"/>
       <use transform="translate(209.938945 38.932812)scale(0.7)" xlink:href="#Verdana-49"/>
      </g>
     </g>
    </g>
    <g id="ytick_5">
     <g id="line2d_25">
      <path clip-path="url(#p5f188683ed)" d="M 57.6 185.003012 
L 414.72 185.003012 
" style="fill:none;stroke:#b0b0b0;stroke-linecap:square;stroke-width:0.8;"/>
     </g>
     <g id="line2d_26">
      <g>
       <use style="stroke:#000000;stroke-width:0.8;" x="57.6" xlink:href="#mf7a21b576a" y="185.003012"/>
      </g>
     </g>
     <g id="text_14">
      <!-- $\mathdefault{-10^{0}}$ -->
      <g transform="translate(24.8 188.802231)scale(0.1 -0.1)">
       <use transform="translate(0 0.896875)" xlink:href="#Verdana-8722"/>
       <use transform="translate(81.835938 0.896875)" xlink:href="#Verdana-49"/>
       <use transform="translate(145.410156 0.896875)" xlink:href="#Verdana-48"/>
       <use transform="translate(209.938945 39.079688)scale(0.7)" xlink:href="#Verdana-48"/>
      </g>
     </g>
    </g>
    <g id="ytick_6">
     <g id="line2d_27">
      <path clip-path="url(#p5f188683ed)" d="M 57.6 169.000666 
L 414.72 169.000666 
" style="fill:none;stroke:#b0b0b0;stroke-linecap:square;stroke-width:0.8;"/>
     </g>
     <g id="line2d_28">
      <g>
       <use style="stroke:#000000;stroke-width:0.8;" x="57.6" xlink:href="#mf7a21b576a" y="169.000666"/>
      </g>
     </g>
     <g id="text_15">
      <!-- $\mathdefault{0}$ -->
      <g transform="translate(44.2 172.799884)scale(0.1 -0.1)">
       <use transform="translate(0 0.828125)" xlink:href="#Verdana-48"/>
      </g>
     </g>
    </g>
    <g id="ytick_7">
     <g id="line2d_29">
      <path clip-path="url(#p5f188683ed)" d="M 57.6 152.998319 
L 414.72 152.998319 
" style="fill:none;stroke:#b0b0b0;stroke-linecap:square;stroke-width:0.8;"/>
     </g>
     <g id="line2d_30">
      <g>
       <use style="stroke:#000000;stroke-width:0.8;" x="57.6" xlink:href="#mf7a21b576a" y="152.998319"/>
      </g>
     </g>
     <g id="text_16">
      <!-- $\mathdefault{10^{0}}$ -->
      <g transform="translate(33 156.797538)scale(0.1 -0.1)">
       <use transform="translate(0 0.896875)" xlink:href="#Verdana-49"/>
       <use transform="translate(63.574219 0.896875)" xlink:href="#Verdana-48"/>
       <use transform="translate(128.103008 39.079688)scale(0.7)" xlink:href="#Verdana-48"/>
      </g>
     </g>
    </g>
    <g id="ytick_8">
     <g id="line2d_31">
      <path clip-path="url(#p5f188683ed)" d="M 57.6 116.862684 
L 414.72 116.862684 
" style="fill:none;stroke:#b0b0b0;stroke-linecap:square;stroke-width:0.8;"/>
     </g>
     <g id="line2d_32">
      <g>
       <use style="stroke:#000000;stroke-width:0.8;" x="57.6" xlink:href="#mf7a21b576a" y="116.862684"/>
      </g>
     </g>
     <g id="text_17">
      <!-- $\mathdefault{10^{1}}$ -->
      <g transform="translate(33 120.661903)scale(0.1 -0.1)">
       <use transform="translate(0 0.75)" xlink:href="#Verdana-49"/>
       <use transform="translate(63.574219 0.75)" xlink:href="#Verdana-48"/>
       <use transform="translate(128.103008 38.932812)scale(0.7)" xlink:href="#Verdana-49"/>
      </g>
     </g>
    </g>
    <g id="ytick_9">
     <g id="line2d_33">
      <path clip-path="url(#p5f188683ed)" d="M 57.6 88.05846 
L 414.72 88.05846 
" style="fill:none;stroke:#b0b0b0;stroke-linecap:square;stroke-width:0.8;"/>
     </g>
     <g id="line2d_34">
      <g>
       <use style="stroke:#000000;stroke-width:0.8;" x="57.6" xlink:href="#mf7a21b576a" y="88.05846"/>
      </g>
     </g>
     <g id="text_18">
      <!-- $\mathdefault{10^{2}}$ -->
      <g transform="translate(33 91.857679)scale(0.1 -0.1)">
       <use transform="translate(0 0.864063)" xlink:href="#Verdana-49"/>
       <use transform="translate(63.574219 0.864063)" xlink:href="#Verdana-48"/>
       <use transform="translate(128.103008 39.046875)scale(0.7)" xlink:href="#Verdana-50"/>
      </g>
     </g>
    </g>
    <g id="ytick_10">
     <g id="line2d_35">
      <path clip-path="url(#p5f188683ed)" d="M 57.6 59.254236 
L 414.72 59.254236 
" style="fill:none;stroke:#b0b0b0;stroke-linecap:square;stroke-width:0.8;"/>
     </g>
     <g id="line2d_36">
      <g>
       <use style="stroke:#000000;stroke-width:0.8;" x="57.6" xlink:href="#mf7a21b576a" y="59.254236"/>
      </g>
     </g>
     <g id="text_19">
      <!-- $\mathdefault{10^{3}}$ -->
      <g transform="translate(33 63.053455)scale(0.1 -0.1)">
       <use transform="translate(0 0.864063)" xlink:href="#Verdana-49"/>
       <use transform="translate(63.574219 0.864063)" xlink:href="#Verdana-48"/>
       <use transform="translate(128.103008 39.046875)scale(0.7)" xlink:href="#Verdana-51"/>
      </g>
     </g>
    </g>
    <g id="ytick_11">
     <g id="line2d_37">
      <defs>
       <path d="M 0 0 
L -2 0 
" id="m2f1aafe9cd" style="stroke:#000000;stroke-width:0.6;"/>
      </defs>
      <g>
       <use style="stroke:#000000;stroke-width:0.6;" x="57.6" xlink:href="#m2f1aafe9cd" y="307.551319"/>
      </g>
     </g>
    </g>
    <g id="ytick_12">
     <g id="line2d_38">
      <g>
       <use style="stroke:#000000;stroke-width:0.6;" x="57.6" xlink:href="#m2f1aafe9cd" y="278.747095"/>
      </g>
     </g>
    </g>
    <g id="ytick_13">
     <g id="line2d_39">
      <g>
       <use style="stroke:#000000;stroke-width:0.6;" x="57.6" xlink:href="#m2f1aafe9cd" y="249.942871"/>
      </g>
     </g>
    </g>
    <g id="ytick_14">
     <g id="line2d_40">
      <g>
       <use style="stroke:#000000;stroke-width:0.6;" x="57.6" xlink:href="#m2f1aafe9cd" y="221.138647"/>
      </g>
     </g>
    </g>
    <g id="ytick_15">
     <g id="line2d_41">
      <g>
       <use style="stroke:#000000;stroke-width:0.6;" x="57.6" xlink:href="#m2f1aafe9cd" y="185.003012"/>
      </g>
     </g>
    </g>
    <g id="ytick_16">
     <g id="line2d_42">
      <g>
       <use style="stroke:#000000;stroke-width:0.6;" x="57.6" xlink:href="#m2f1aafe9cd" y="169.000666"/>
      </g>
     </g>
    </g>
    <g id="ytick_17">
     <g id="line2d_43">
      <g>
       <use style="stroke:#000000;stroke-width:0.6;" x="57.6" xlink:href="#m2f1aafe9cd" y="152.998319"/>
      </g>
     </g>
    </g>
    <g id="ytick_18">
     <g id="line2d_44">
      <g>
       <use style="stroke:#000000;stroke-width:0.6;" x="57.6" xlink:href="#m2f1aafe9cd" y="116.862684"/>
      </g>
     </g>
    </g>
    <g id="ytick_19">
     <g id="line2d_45">
      <g>
       <use style="stroke:#000000;stroke-width:0.6;" x="57.6" xlink:href="#m2f1aafe9cd" y="88.05846"/>
      </g>
     </g>
    </g>
    <g id="ytick_20">
     <g id="line2d_46">
      <g>
       <use style="stroke:#000000;stroke-width:0.6;" x="57.6" xlink:href="#m2f1aafe9cd" y="59.254236"/>
      </g>
     </g>
    </g>
    <g id="text_20">
     <!-- Fitness -->
     <defs>
      <path d="M 56.203125 64.109375 
L 19.4375 64.109375 
L 19.4375 43.609375 
L 51.03125 43.609375 
L 51.03125 35.015625 
L 19.4375 35.015625 
L 19.4375 0 
L 9.765625 0 
L 9.765625 72.703125 
L 56.203125 72.703125 
z
" id="Verdana-70"/>
     </defs>
     <g transform="translate(18.7875 192.095969)rotate(-90)scale(0.1 -0.1)">
      <use xlink:href="#Verdana-70"/>
      <use x="57.470703" xlink:href="#Verdana-105"/>
      <use x="84.912109" xlink:href="#Verdana-116"/>
      <use x="124.316406" xlink:href="#Verdana-110"/>
      <use x="187.597656" xlink:href="#Verdana-101"/>
      <use x="247.167969" xlink:href="#Verdana-115"/>
      <use x="299.267578" xlink:href="#Verdana-115"/>
     </g>
    </g>
   </g>
   <g id="line2d_47">
    <path clip-path="url(#p5f188683ed)" d="M 73.832727 295.488 
L 90.919809 288.350392 
L 108.00689 285.237699 
L 125.093971 279.801472 
L 142.181053 276.673672 
L 159.268134 279.851047 
L 176.355215 276.149319 
L 193.442297 275.416313 
L 210.529378 281.177276 
L 227.616459 269.549328 
L 244.703541 275.040789 
L 261.790622 279.339076 
L 278.877703 279.825825 
L 295.964785 272.391476 
L 313.051866 274.333422 
L 330.138947 276.128362 
L 347.226029 276.948791 
L 364.31311 277.197333 
L 381.400191 289.340518 
L 398.487273 273.785765 
" style="fill:none;stroke:#0000ff;stroke-linecap:square;stroke-width:1.5;"/>
   </g>
   <g id="line2d_48">
    <path clip-path="url(#p5f188683ed)" d="M 73.832727 274.555434 
L 90.919809 286.861161 
L 108.00689 275.895272 
L 125.093971 256.83959 
L 142.181053 77.326245 
L 159.268134 256.715702 
L 176.355215 77.163709 
L 193.442297 77.598005 
L 210.529378 256.528854 
L 227.616459 80.098006 
L 244.703541 75.570119 
L 261.790622 243.718465 
L 278.877703 214.055945 
L 295.964785 75.060465 
L 313.051866 75.361619 
L 330.138947 76.286133 
L 347.226029 74.30427 
L 364.31311 74.713775 
L 381.400191 53.568 
L 398.487273 76.764327 
" style="fill:none;stroke:#008000;stroke-dasharray:9.6,2.4,1.5,2.4;stroke-dashoffset:0;stroke-width:1.5;"/>
   </g>
   <g id="line2d_49">
    <path clip-path="url(#p5f188683ed)" d="M 73.832727 287.360982 
L 90.919809 285.784021 
L 108.00689 102.831041 
L 125.093971 102.831041 
L 142.181053 100.908513 
L 159.268134 100.908513 
L 176.355215 100.908513 
L 193.442297 92.237578 
L 210.529378 92.237578 
L 227.616459 92.237578 
L 244.703541 92.237578 
L 261.790622 92.237578 
L 278.877703 92.237578 
L 295.964785 92.237578 
L 313.051866 92.237578 
L 330.138947 92.237578 
L 347.226029 86.320989 
L 364.31311 86.320989 
L 381.400191 86.320989 
L 398.487273 86.320989 
" style="fill:none;stroke:#ff0000;stroke-linecap:square;stroke-width:1.5;"/>
   </g>
   <g id="patch_3">
    <path d="M 57.6 307.584 
L 57.6 41.472 
" style="fill:none;stroke:#000000;stroke-linecap:square;stroke-linejoin:miter;stroke-width:0.8;"/>
   </g>
   <g id="patch_4">
    <path d="M 414.72 307.584 
L 414.72 41.472 
" style="fill:none;stroke:#000000;stroke-linecap:square;stroke-linejoin:miter;stroke-width:0.8;"/>
   </g>
   <g id="patch_5">
    <path d="M 57.6 307.584 
L 414.72 307.584 
" style="fill:none;stroke:#000000;stroke-linecap:square;stroke-linejoin:miter;stroke-width:0.8;"/>
   </g>
   <g id="patch_6">
    <path d="M 57.6 41.472 
L 414.72 41.472 
" style="fill:none;stroke:#000000;stroke-linecap:square;stroke-linejoin:miter;stroke-width:0.8;"/>
   </g>
   <g id="text_21">
    <!-- Population's average and best fitness -->
    <defs>
     <path d="M 57.328125 50.734375 
Q 57.328125 45.90625 55.640625 41.765625 
Q 53.953125 37.640625 50.921875 34.625 
Q 47.171875 30.859375 42.046875 28.96875 
Q 36.921875 27.09375 29.109375 27.09375 
L 19.4375 27.09375 
L 19.4375 0 
L 9.765625 0 
L 9.765625 72.703125 
L 29.5 72.703125 
Q 36.03125 72.703125 40.578125 71.609375 
Q 45.125 70.515625 48.640625 68.171875 
Q 52.78125 65.375 55.046875 61.21875 
Q 57.328125 57.078125 57.328125 50.734375 
z
M 47.265625 50.484375 
Q 47.265625 54.25 45.9375 57.03125 
Q 44.625 59.8125 41.9375 61.578125 
Q 39.59375 63.09375 36.59375 63.75 
Q 33.59375 64.40625 29 64.40625 
L 19.4375 64.40625 
L 19.4375 35.359375 
L 27.59375 35.359375 
Q 33.453125 35.359375 37.109375 36.40625 
Q 40.765625 37.453125 43.0625 39.75 
Q 45.359375 42.09375 46.3125 44.671875 
Q 47.265625 47.265625 47.265625 50.484375 
z
" id="Verdana-80"/>
     <path d="M 57.03125 27.9375 
Q 57.03125 21.296875 55.125 15.796875 
Q 53.21875 10.296875 49.75 6.5 
Q 46.53125 2.875 42.15625 0.890625 
Q 37.796875 -1.078125 32.90625 -1.078125 
Q 28.65625 -1.078125 25.21875 -0.140625 
Q 21.78125 0.78125 18.21875 2.734375 
L 18.21875 -20.125 
L 9.03125 -20.125 
L 9.03125 54.546875 
L 18.21875 54.546875 
L 18.21875 48.828125 
Q 21.875 51.90625 26.4375 53.984375 
Q 31 56.0625 36.1875 56.0625 
Q 46.046875 56.0625 51.53125 48.609375 
Q 57.03125 41.15625 57.03125 27.9375 
z
M 47.5625 27.6875 
Q 47.5625 37.546875 44.1875 42.421875 
Q 40.828125 47.3125 33.84375 47.3125 
Q 29.890625 47.3125 25.875 45.59375 
Q 21.875 43.890625 18.21875 41.109375 
L 18.21875 10.203125 
Q 22.125 8.453125 24.921875 7.8125 
Q 27.734375 7.171875 31.296875 7.171875 
Q 38.96875 7.171875 43.265625 12.34375 
Q 47.5625 17.53125 47.5625 27.6875 
z
" id="Verdana-112"/>
     <path d="M 54.25 0 
L 45.0625 0 
L 45.0625 6.0625 
Q 40.4375 2.390625 36.1875 0.4375 
Q 31.9375 -1.515625 26.8125 -1.515625 
Q 18.21875 -1.515625 13.421875 3.734375 
Q 8.640625 8.984375 8.640625 19.140625 
L 8.640625 54.546875 
L 17.828125 54.546875 
L 17.828125 23.484375 
Q 17.828125 19.34375 18.21875 16.375 
Q 18.609375 13.421875 19.875 11.328125 
Q 21.1875 9.1875 23.28125 8.203125 
Q 25.390625 7.234375 29.390625 7.234375 
Q 32.953125 7.234375 37.171875 9.078125 
Q 41.40625 10.9375 45.0625 13.8125 
L 45.0625 54.546875 
L 54.25 54.546875 
z
" id="Verdana-117"/>
     <path d="M 18.3125 0 
L 9.125 0 
L 9.125 75.984375 
L 18.3125 75.984375 
z
" id="Verdana-108"/>
     <path d="M 18.84375 75.984375 
L 16.75 47.703125 
L 10.109375 47.703125 
L 8.015625 75.984375 
z
" id="Verdana-39"/>
     <path id="Verdana-32"/>
     <path d="M 56.203125 54.546875 
L 34.125 0 
L 24.90625 0 
L 2.984375 54.546875 
L 12.9375 54.546875 
L 29.828125 11.140625 
L 46.578125 54.546875 
z
" id="Verdana-118"/>
     <path d="M 53.265625 6.203125 
Q 53.265625 -7.671875 46.96875 -14.15625 
Q 40.671875 -20.65625 27.59375 -20.65625 
Q 23.25 -20.65625 19.109375 -20.046875 
Q 14.984375 -19.4375 10.984375 -18.3125 
L 10.984375 -8.9375 
L 11.46875 -8.9375 
Q 13.71875 -9.8125 18.59375 -11.109375 
Q 23.484375 -12.40625 28.375 -12.40625 
Q 33.0625 -12.40625 36.125 -11.28125 
Q 39.203125 -10.15625 40.921875 -8.15625 
Q 42.625 -6.25 43.359375 -3.5625 
Q 44.09375 -0.875 44.09375 2.4375 
L 44.09375 7.421875 
Q 39.9375 4.109375 36.15625 2.46875 
Q 32.375 0.828125 26.515625 0.828125 
Q 16.75 0.828125 11.015625 7.875 
Q 5.28125 14.9375 5.28125 27.78125 
Q 5.28125 34.8125 7.25 39.90625 
Q 9.234375 45.015625 12.640625 48.734375 
Q 15.828125 52.203125 20.359375 54.125 
Q 24.90625 56.0625 29.390625 56.0625 
Q 34.125 56.0625 37.328125 55.109375 
Q 40.53125 54.15625 44.09375 52.203125 
L 44.671875 54.546875 
L 53.265625 54.546875 
z
M 44.09375 14.984375 
L 44.09375 44.734375 
Q 40.4375 46.390625 37.28125 47.09375 
Q 34.125 47.796875 31 47.796875 
Q 23.4375 47.796875 19.09375 42.71875 
Q 14.75 37.640625 14.75 27.984375 
Q 14.75 18.796875 17.96875 14.0625 
Q 21.1875 9.328125 28.65625 9.328125 
Q 32.671875 9.328125 36.6875 10.859375 
Q 40.71875 12.40625 44.09375 14.984375 
z
" id="Verdana-103"/>
     <path d="M 53.265625 0 
L 44.09375 0 
L 44.09375 5.71875 
Q 40.140625 2.296875 35.84375 0.390625 
Q 31.546875 -1.515625 26.515625 -1.515625 
Q 16.75 -1.515625 11.015625 6 
Q 5.28125 13.53125 5.28125 26.859375 
Q 5.28125 33.796875 7.25 39.203125 
Q 9.234375 44.625 12.59375 48.4375 
Q 15.921875 52.15625 20.328125 54.109375 
Q 24.75 56.0625 29.5 56.0625 
Q 33.796875 56.0625 37.109375 55.15625 
Q 40.4375 54.25 44.09375 52.34375 
L 44.09375 75.984375 
L 53.265625 75.984375 
z
M 44.09375 13.421875 
L 44.09375 44.734375 
Q 40.375 46.390625 37.4375 47.015625 
Q 34.515625 47.65625 31.0625 47.65625 
Q 23.34375 47.65625 19.046875 42.28125 
Q 14.75 36.921875 14.75 27.046875 
Q 14.75 17.328125 18.0625 12.28125 
Q 21.390625 7.234375 28.71875 7.234375 
Q 32.625 7.234375 36.625 8.953125 
Q 40.625 10.6875 44.09375 13.421875 
z
" id="Verdana-100"/>
     <path d="M 57.03125 27.6875 
Q 57.03125 20.84375 55.09375 15.375 
Q 53.171875 9.90625 49.90625 6.203125 
Q 46.4375 2.34375 42.28125 0.40625 
Q 38.140625 -1.515625 33.15625 -1.515625 
Q 28.515625 -1.515625 25.046875 -0.40625 
Q 21.578125 0.6875 18.21875 2.546875 
L 17.625 0 
L 9.03125 0 
L 9.03125 75.984375 
L 18.21875 75.984375 
L 18.21875 48.828125 
Q 22.078125 52 26.421875 54.03125 
Q 30.765625 56.0625 36.1875 56.0625 
Q 45.84375 56.0625 51.4375 48.640625 
Q 57.03125 41.21875 57.03125 27.6875 
z
M 47.5625 27.4375 
Q 47.5625 37.203125 44.328125 42.25 
Q 41.109375 47.3125 33.9375 47.3125 
Q 29.9375 47.3125 25.828125 45.578125 
Q 21.734375 43.84375 18.21875 41.109375 
L 18.21875 9.859375 
Q 22.125 8.109375 24.921875 7.421875 
Q 27.734375 6.734375 31.296875 6.734375 
Q 38.921875 6.734375 43.234375 11.734375 
Q 47.5625 16.75 47.5625 27.4375 
z
" id="Verdana-98"/>
     <path d="M 38.375 67.09375 
L 37.890625 67.09375 
Q 36.375 67.53125 33.9375 67.984375 
Q 31.5 68.453125 29.640625 68.453125 
Q 23.734375 68.453125 21.0625 65.84375 
Q 18.40625 63.234375 18.40625 56.390625 
L 18.40625 54.546875 
L 34.96875 54.546875 
L 34.96875 46.828125 
L 18.703125 46.828125 
L 18.703125 0 
L 9.515625 0 
L 9.515625 46.828125 
L 3.328125 46.828125 
L 3.328125 54.546875 
L 9.515625 54.546875 
L 9.515625 56.34375 
Q 9.515625 66.0625 14.34375 71.265625 
Q 19.1875 76.46875 28.328125 76.46875 
Q 31.390625 76.46875 33.859375 76.171875 
Q 36.328125 75.875 38.375 75.484375 
z
" id="Verdana-102"/>
    </defs>
    <g transform="translate(123.601875 35.472)scale(0.12 -0.12)">
     <use xlink:href="#Verdana-80"/>
     <use x="60.271484" xlink:href="#Verdana-111"/>
     <use x="120.964844" xlink:href="#Verdana-112"/>
     <use x="183.269531" xlink:href="#Verdana-117"/>
     <use x="246.550781" xlink:href="#Verdana-108"/>
     <use x="273.992188" xlink:href="#Verdana-97"/>
     <use x="334.050781" xlink:href="#Verdana-116"/>
     <use x="373.455078" xlink:href="#Verdana-105"/>
     <use x="400.896484" xlink:href="#Verdana-111"/>
     <use x="461.589844" xlink:href="#Verdana-110"/>
     <use x="524.871094" xlink:href="#Verdana-39"/>
     <use x="551.726562" xlink:href="#Verdana-115"/>
     <use x="603.826172" xlink:href="#Verdana-32"/>
     <use x="638.982422" xlink:href="#Verdana-97"/>
     <use x="699.041016" xlink:href="#Verdana-118"/>
     <use x="758.220703" xlink:href="#Verdana-101"/>
     <use x="817.791016" xlink:href="#Verdana-114"/>
     <use x="860.451172" xlink:href="#Verdana-97"/>
     <use x="920.509766" xlink:href="#Verdana-103"/>
     <use x="982.814453" xlink:href="#Verdana-101"/>
     <use x="1042.384766" xlink:href="#Verdana-32"/>
     <use x="1077.541016" xlink:href="#Verdana-97"/>
     <use x="1137.599609" xlink:href="#Verdana-110"/>
     <use x="1200.880859" xlink:href="#Verdana-100"/>
     <use x="1263.185547" xlink:href="#Verdana-32"/>
     <use x="1298.341797" xlink:href="#Verdana-98"/>
     <use x="1360.646484" xlink:href="#Verdana-101"/>
     <use x="1420.216797" xlink:href="#Verdana-115"/>
     <use x="1472.316406" xlink:href="#Verdana-116"/>
     <use x="1511.720703" xlink:href="#Verdana-32"/>
     <use x="1546.876953" xlink:href="#Verdana-102"/>
     <use x="1582.033203" xlink:href="#Verdana-105"/>
     <use x="1609.474609" xlink:href="#Verdana-116"/>
     <use x="1648.878906" xlink:href="#Verdana-110"/>
     <use x="1712.160156" xlink:href="#Verdana-101"/>
     <use x="1771.730469" xlink:href="#Verdana-115"/>
     <use x="1823.830078" xlink:href="#Verdana-115"/>
    </g>
   </g>
   <g id="legend_1">
    <g id="patch_7">
     <path d="M 64.6 93.357938 
L 136.94375 93.357938 
Q 138.94375 93.357938 138.94375 91.357938 
L 138.94375 48.472 
Q 138.94375 46.472 136.94375 46.472 
L 64.6 46.472 
Q 62.6 46.472 62.6 48.472 
L 62.6 91.357938 
Q 62.6 93.357938 64.6 93.357938 
z
" style="fill:#ffffff;opacity:0.8;stroke:#cccccc;stroke-linejoin:miter;"/>
    </g>
    <g id="line2d_50">
     <path d="M 66.6 54.570438 
L 86.6 54.570438 
" style="fill:none;stroke:#0000ff;stroke-linecap:square;stroke-width:1.5;"/>
    </g>
    <g id="line2d_51"/>
    <g id="text_22">
     <!-- average -->
     <g transform="translate(94.6 58.070438)scale(0.1 -0.1)">
      <use xlink:href="#Verdana-97"/>
      <use x="60.058594" xlink:href="#Verdana-118"/>
      <use x="119.238281" xlink:href="#Verdana-101"/>
      <use x="178.808594" xlink:href="#Verdana-114"/>
      <use x="221.46875" xlink:href="#Verdana-97"/>
      <use x="281.527344" xlink:href="#Verdana-103"/>
      <use x="343.832031" xlink:href="#Verdana-101"/>
     </g>
    </g>
    <g id="line2d_52">
     <path d="M 66.6 69.2345 
L 86.6 69.2345 
" style="fill:none;stroke:#008000;stroke-dasharray:9.6,2.4,1.5,2.4;stroke-dashoffset:0;stroke-width:1.5;"/>
    </g>
    <g id="line2d_53"/>
    <g id="text_23">
     <!-- +1 sd -->
     <defs>
      <path d="M 71.578125 27.9375 
L 44.96875 27.9375 
L 44.96875 1.3125 
L 36.859375 1.3125 
L 36.859375 27.9375 
L 10.25 27.9375 
L 10.25 35.75 
L 36.859375 35.75 
L 36.859375 62.359375 
L 44.96875 62.359375 
L 44.96875 35.75 
L 71.578125 35.75 
z
" id="Verdana-43"/>
     </defs>
     <g transform="translate(94.6 72.7345)scale(0.1 -0.1)">
      <use xlink:href="#Verdana-43"/>
      <use x="81.835938" xlink:href="#Verdana-49"/>
      <use x="145.410156" xlink:href="#Verdana-32"/>
      <use x="180.566406" xlink:href="#Verdana-115"/>
      <use x="232.666016" xlink:href="#Verdana-100"/>
     </g>
    </g>
    <g id="line2d_54">
     <path d="M 66.6 83.845438 
L 86.6 83.845438 
" style="fill:none;stroke:#ff0000;stroke-linecap:square;stroke-width:1.5;"/>
    </g>
    <g id="line2d_55"/>
    <g id="text_24">
     <!-- best -->
     <g transform="translate(94.6 87.345438)scale(0.1 -0.1)">
      <use xlink:href="#Verdana-98"/>
      <use x="62.304688" xlink:href="#Verdana-101"/>
      <use x="121.875" xlink:href="#Verdana-115"/>
      <use x="173.974609" xlink:href="#Verdana-116"/>
     </g>
    </g>
   </g>
  </g>
 </g>
 <defs>
  <clipPath id="p5f188683ed">
   <rect height="266.112" width="357.12" x="57.6" y="41.472"/>
  </clipPath>
 </defs>
</svg>
