<?xml version="1.0" encoding="utf-8" standalone="no"?>
<!DOCTYPE svg PUBLIC "-//W3C//DTD SVG 1.1//EN"
  "http://www.w3.org/Graphics/SVG/1.1/DTD/svg11.dtd">
<!-- Created with matplotlib (https://matplotlib.org/) -->
<svg height="345.6pt" version="1.1" viewBox="0 0 460.8 345.6" width="460.8pt" xmlns="http://www.w3.org/2000/svg" xmlns:xlink="http://www.w3.org/1999/xlink">
 <defs>
  <style type="text/css">
*{stroke-linecap:butt;stroke-linejoin:round;}
  </style>
 </defs>
 <g id="figure_1">
  <g id="patch_1">
   <path d="M 0 345.6 
L 460.8 345.6 
L 460.8 0 
L 0 0 
z
" style="fill:#ffffff;"/>
  </g>
  <g id="axes_1">
   <g id="patch_2">
    <path d="M 57.6 307.584 
L 414.72 307.584 
L 414.72 41.472 
L 57.6 41.472 
z
" style="fill:#ffffff;"/>
   </g>
   <g id="PolyCollection_1">
    <path clip-path="url(#pcf61be2515)" d="M 73.832727 53.568 
L 73.832727 295.488 
L 90.919809 295.488 
L 108.00689 295.488 
L 125.093971 295.488 
L 142.181053 295.488 
L 159.268134 295.488 
L 176.355215 295.488 
L 193.442297 295.488 
L 210.529378 295.488 
L 227.616459 295.488 
L 244.703541 295.488 
L 261.790622 295.488 
L 278.877703 295.488 
L 295.964785 295.488 
L 313.051866 295.488 
L 330.138947 295.488 
L 347.226029 295.488 
L 364.31311 295.488 
L 381.400191 295.488 
L 398.487273 295.488 
L 398.487273 53.568 
L 398.487273 53.568 
L 381.400191 53.568 
L 364.31311 53.568 
L 347.226029 53.568 
L 330.138947 53.568 
L 313.051866 53.568 
L 295.964785 53.568 
L 278.877703 53.568 
L 261.790622 53.568 
L 244.703541 53.568 
L 227.616459 53.568 
L 210.529378 53.568 
L 193.442297 53.568 
L 176.355215 53.568 
L 159.268134 53.568 
L 142.181053 53.568 
L 125.093971 53.568 
L 108.00689 53.568 
L 90.919809 53.568 
L 73.832727 53.568 
z
" style="fill:#1f77b4;"/>
   </g>
   <g id="matplotlib.axis_1">
    <g id="xtick_1">
     <g id="line2d_1">
      <defs>
       <path d="M 0 0 
L 0 3.5 
" id="m7c626b7724" style="stroke:#000000;stroke-width:0.8;"/>
      </defs>
      <g>
       <use style="stroke:#000000;stroke-width:0.8;" x="73.832727" xlink:href="#m7c626b7724" y="307.584"/>
      </g>
     </g>
     <g id="text_1">
      <!-- 0.0 -->
      <defs>
       <path d="M 56.984375 36.375 
Q 56.984375 16.796875 50.859375 7.640625 
Q 44.734375 -1.515625 31.84375 -1.515625 
Q 18.75 -1.515625 12.71875 7.765625 
Q 6.6875 17.046875 6.6875 36.28125 
Q 6.6875 55.671875 12.78125 64.921875 
Q 18.890625 74.171875 31.84375 74.171875 
Q 44.921875 74.171875 50.953125 64.765625 
Q 56.984375 55.375 56.984375 36.375 
z
M 44.140625 14.203125 
Q 45.84375 18.171875 46.453125 23.515625 
Q 47.078125 28.859375 47.078125 36.375 
Q 47.078125 43.796875 46.453125 49.265625 
Q 45.84375 54.734375 44.09375 58.546875 
Q 42.390625 62.3125 39.421875 64.203125 
Q 36.46875 66.109375 31.84375 66.109375 
Q 27.25 66.109375 24.234375 64.203125 
Q 21.234375 62.3125 19.484375 58.453125 
Q 17.828125 54.828125 17.21875 49.015625 
Q 16.609375 43.21875 16.609375 36.28125 
Q 16.609375 28.65625 17.140625 23.53125 
Q 17.671875 18.40625 19.4375 14.359375 
Q 21.046875 10.546875 24 8.546875 
Q 26.953125 6.546875 31.84375 6.546875 
Q 36.421875 6.546875 39.453125 8.453125 
Q 42.484375 10.359375 44.140625 14.203125 
z
" id="Verdana-48"/>
       <path d="M 24.03125 0 
L 12.359375 0 
L 12.359375 13.921875 
L 24.03125 13.921875 
z
" id="Verdana-46"/>
      </defs>
      <g transform="translate(65.656165 322.182437)scale(0.1 -0.1)">
       <use xlink:href="#Verdana-48"/>
       <use x="63.574219" xlink:href="#Verdana-46"/>
       <use x="99.951172" xlink:href="#Verdana-48"/>
      </g>
     </g>
    </g>
    <g id="xtick_2">
     <g id="line2d_2">
      <g>
       <use style="stroke:#000000;stroke-width:0.8;" x="116.550431" xlink:href="#m7c626b7724" y="307.584"/>
      </g>
     </g>
     <g id="text_2">
      <!-- 2.5 -->
      <defs>
       <path d="M 57.078125 0 
L 7.859375 0 
L 7.859375 10.203125 
Q 12.984375 14.59375 18.140625 18.984375 
Q 23.296875 23.390625 27.734375 27.734375 
Q 37.109375 36.8125 40.578125 42.15625 
Q 44.046875 47.515625 44.046875 53.71875 
Q 44.046875 59.375 40.3125 62.5625 
Q 36.578125 65.765625 29.890625 65.765625 
Q 25.4375 65.765625 20.265625 64.203125 
Q 15.09375 62.640625 10.15625 59.421875 
L 9.671875 59.421875 
L 9.671875 69.671875 
Q 13.140625 71.390625 18.921875 72.796875 
Q 24.703125 74.21875 30.125 74.21875 
Q 41.3125 74.21875 47.65625 68.8125 
Q 54 63.421875 54 54.203125 
Q 54 50.046875 52.953125 46.453125 
Q 51.90625 42.875 49.859375 39.65625 
Q 47.953125 36.625 45.390625 33.6875 
Q 42.828125 30.765625 39.15625 27.203125 
Q 33.9375 22.078125 28.359375 17.265625 
Q 22.796875 12.453125 17.96875 8.34375 
L 57.078125 8.34375 
z
" id="Verdana-50"/>
       <path d="M 56.5 23.09375 
Q 56.5 18.015625 54.640625 13.375 
Q 52.78125 8.734375 49.5625 5.5625 
Q 46.046875 2.15625 41.1875 0.3125 
Q 36.328125 -1.515625 29.9375 -1.515625 
Q 23.96875 -1.515625 18.453125 -0.265625 
Q 12.9375 0.984375 9.125 2.734375 
L 9.125 13.03125 
L 9.8125 13.03125 
Q 13.8125 10.5 19.1875 8.71875 
Q 24.5625 6.9375 29.734375 6.9375 
Q 33.203125 6.9375 36.453125 7.90625 
Q 39.703125 8.890625 42.234375 11.328125 
Q 44.390625 13.421875 45.484375 16.34375 
Q 46.578125 19.28125 46.578125 23.140625 
Q 46.578125 26.90625 45.28125 29.484375 
Q 44 32.078125 41.703125 33.640625 
Q 39.15625 35.5 35.515625 36.25 
Q 31.890625 37.015625 27.390625 37.015625 
Q 23.09375 37.015625 19.109375 36.421875 
Q 15.140625 35.84375 12.25 35.25 
L 12.25 72.703125 
L 56 72.703125 
L 56 64.15625 
L 21.6875 64.15625 
L 21.6875 44.828125 
Q 23.78125 45.015625 25.96875 45.109375 
Q 28.171875 45.21875 29.78125 45.21875 
Q 35.6875 45.21875 40.125 44.21875 
Q 44.578125 43.21875 48.296875 40.671875 
Q 52.203125 37.984375 54.34375 33.734375 
Q 56.5 29.5 56.5 23.09375 
z
" id="Verdana-53"/>
      </defs>
      <g transform="translate(108.373868 322.182437)scale(0.1 -0.1)">
       <use xlink:href="#Verdana-50"/>
       <use x="63.574219" xlink:href="#Verdana-46"/>
       <use x="99.951172" xlink:href="#Verdana-53"/>
      </g>
     </g>
    </g>
    <g id="xtick_3">
     <g id="line2d_3">
      <g>
       <use style="stroke:#000000;stroke-width:0.8;" x="159.268134" xlink:href="#m7c626b7724" y="307.584"/>
      </g>
     </g>
     <g id="text_3">
      <!-- 5.0 -->
      <g transform="translate(151.091571 322.182437)scale(0.1 -0.1)">
       <use xlink:href="#Verdana-53"/>
       <use x="63.574219" xlink:href="#Verdana-46"/>
       <use x="99.951172" xlink:href="#Verdana-48"/>
      </g>
     </g>
    </g>
    <g id="xtick_4">
     <g id="line2d_4">
      <g>
       <use style="stroke:#000000;stroke-width:0.8;" x="201.985837" xlink:href="#m7c626b7724" y="307.584"/>
      </g>
     </g>
     <g id="text_4">
      <!-- 7.5 -->
      <defs>
       <path d="M 57.28125 61.8125 
L 24.359375 0 
L 13.921875 0 
L 48.921875 64.15625 
L 7.515625 64.15625 
L 7.515625 72.703125 
L 57.28125 72.703125 
z
" id="Verdana-55"/>
      </defs>
      <g transform="translate(193.809275 322.182437)scale(0.1 -0.1)">
       <use xlink:href="#Verdana-55"/>
       <use x="63.574219" xlink:href="#Verdana-46"/>
       <use x="99.951172" xlink:href="#Verdana-53"/>
      </g>
     </g>
    </g>
    <g id="xtick_5">
     <g id="line2d_5">
      <g>
       <use style="stroke:#000000;stroke-width:0.8;" x="244.703541" xlink:href="#m7c626b7724" y="307.584"/>
      </g>
     </g>
     <g id="text_5">
      <!-- 10.0 -->
      <defs>
       <path d="M 52.9375 0 
L 13.578125 0 
L 13.578125 7.421875 
L 28.71875 7.421875 
L 28.71875 56.15625 
L 13.578125 56.15625 
L 13.578125 62.796875 
Q 16.65625 62.796875 20.171875 63.296875 
Q 23.6875 63.8125 25.484375 64.796875 
Q 27.734375 66.015625 29.03125 67.890625 
Q 30.328125 69.78125 30.515625 72.953125 
L 38.09375 72.953125 
L 38.09375 7.421875 
L 52.9375 7.421875 
z
" id="Verdana-49"/>
      </defs>
      <g transform="translate(233.348072 322.182437)scale(0.1 -0.1)">
       <use xlink:href="#Verdana-49"/>
       <use x="63.574219" xlink:href="#Verdana-48"/>
       <use x="127.148438" xlink:href="#Verdana-46"/>
       <use x="163.525391" xlink:href="#Verdana-48"/>
      </g>
     </g>
    </g>
    <g id="xtick_6">
     <g id="line2d_6">
      <g>
       <use style="stroke:#000000;stroke-width:0.8;" x="287.421244" xlink:href="#m7c626b7724" y="307.584"/>
      </g>
     </g>
     <g id="text_6">
      <!-- 12.5 -->
      <g transform="translate(276.065775 322.182437)scale(0.1 -0.1)">
       <use xlink:href="#Verdana-49"/>
       <use x="63.574219" xlink:href="#Verdana-50"/>
       <use x="127.148438" xlink:href="#Verdana-46"/>
       <use x="163.525391" xlink:href="#Verdana-53"/>
      </g>
     </g>
    </g>
    <g id="xtick_7">
     <g id="line2d_7">
      <g>
       <use style="stroke:#000000;stroke-width:0.8;" x="330.138947" xlink:href="#m7c626b7724" y="307.584"/>
      </g>
     </g>
     <g id="text_7">
      <!-- 15.0 -->
      <g transform="translate(318.783479 322.182437)scale(0.1 -0.1)">
       <use xlink:href="#Verdana-49"/>
       <use x="63.574219" xlink:href="#Verdana-53"/>
       <use x="127.148438" xlink:href="#Verdana-46"/>
       <use x="163.525391" xlink:href="#Verdana-48"/>
      </g>
     </g>
    </g>
    <g id="xtick_8">
     <g id="line2d_8">
      <g>
       <use style="stroke:#000000;stroke-width:0.8;" x="372.856651" xlink:href="#m7c626b7724" y="307.584"/>
      </g>
     </g>
     <g id="text_8">
      <!-- 17.5 -->
      <g transform="translate(361.501182 322.182437)scale(0.1 -0.1)">
       <use xlink:href="#Verdana-49"/>
       <use x="63.574219" xlink:href="#Verdana-55"/>
       <use x="127.148438" xlink:href="#Verdana-46"/>
       <use x="163.525391" xlink:href="#Verdana-53"/>
      </g>
     </g>
    </g>
    <g id="text_9">
     <!-- Generations -->
     <defs>
      <path d="M 70.40625 5.375 
Q 64.453125 2.640625 57.390625 0.609375 
Q 50.34375 -1.421875 43.75 -1.421875 
Q 35.25 -1.421875 28.171875 0.921875 
Q 21.09375 3.265625 16.109375 7.953125 
Q 11.078125 12.703125 8.34375 19.796875 
Q 5.609375 26.90625 5.609375 36.421875 
Q 5.609375 53.859375 15.796875 63.9375 
Q 25.984375 74.03125 43.75 74.03125 
Q 49.953125 74.03125 56.421875 72.53125 
Q 62.890625 71.046875 70.359375 67.484375 
L 70.359375 56 
L 69.484375 56 
Q 67.96875 57.171875 65.078125 59.078125 
Q 62.203125 60.984375 59.421875 62.25 
Q 56.0625 63.765625 51.78125 64.765625 
Q 47.515625 65.765625 42.09375 65.765625 
Q 29.890625 65.765625 22.78125 57.921875 
Q 15.671875 50.09375 15.671875 36.71875 
Q 15.671875 22.609375 23.09375 14.765625 
Q 30.515625 6.9375 43.3125 6.9375 
Q 48 6.9375 52.65625 7.859375 
Q 57.328125 8.796875 60.84375 10.25 
L 60.84375 28.078125 
L 41.359375 28.078125 
L 41.359375 36.578125 
L 70.40625 36.578125 
z
" id="Verdana-71"/>
      <path d="M 54.6875 26.3125 
L 14.5 26.3125 
Q 14.5 21.296875 16.015625 17.546875 
Q 17.53125 13.8125 20.171875 11.421875 
Q 22.703125 9.078125 26.1875 7.90625 
Q 29.6875 6.734375 33.890625 6.734375 
Q 39.453125 6.734375 45.09375 8.953125 
Q 50.734375 11.1875 53.125 13.328125 
L 53.609375 13.328125 
L 53.609375 3.328125 
Q 48.96875 1.375 44.140625 0.046875 
Q 39.3125 -1.265625 33.984375 -1.265625 
Q 20.40625 -1.265625 12.78125 6.078125 
Q 5.171875 13.421875 5.171875 26.953125 
Q 5.171875 40.328125 12.46875 48.1875 
Q 19.78125 56.0625 31.6875 56.0625 
Q 42.71875 56.0625 48.703125 49.609375 
Q 54.6875 43.171875 54.6875 31.296875 
z
M 45.75 33.34375 
Q 45.703125 40.578125 42.109375 44.53125 
Q 38.53125 48.484375 31.203125 48.484375 
Q 23.828125 48.484375 19.453125 44.140625 
Q 15.09375 39.796875 14.5 33.34375 
z
" id="Verdana-101"/>
      <path d="M 54.640625 0 
L 45.453125 0 
L 45.453125 31.0625 
Q 45.453125 34.8125 45.015625 38.109375 
Q 44.578125 41.40625 43.40625 43.265625 
Q 42.1875 45.3125 39.890625 46.3125 
Q 37.59375 47.3125 33.9375 47.3125 
Q 30.171875 47.3125 26.0625 45.453125 
Q 21.96875 43.609375 18.21875 40.71875 
L 18.21875 0 
L 9.03125 0 
L 9.03125 54.546875 
L 18.21875 54.546875 
L 18.21875 48.484375 
Q 22.515625 52.046875 27.09375 54.046875 
Q 31.6875 56.0625 36.53125 56.0625 
Q 45.359375 56.0625 50 50.734375 
Q 54.640625 45.40625 54.640625 35.40625 
z
" id="Verdana-110"/>
      <path d="M 43.0625 44.53125 
L 42.578125 44.53125 
Q 40.53125 45.015625 38.59375 45.234375 
Q 36.671875 45.453125 34.03125 45.453125 
Q 29.78125 45.453125 25.828125 43.578125 
Q 21.875 41.703125 18.21875 38.71875 
L 18.21875 0 
L 9.03125 0 
L 9.03125 54.546875 
L 18.21875 54.546875 
L 18.21875 46.484375 
Q 23.6875 50.875 27.859375 52.703125 
Q 32.03125 54.546875 36.375 54.546875 
Q 38.765625 54.546875 39.84375 54.421875 
Q 40.921875 54.296875 43.0625 53.953125 
z
" id="Verdana-114"/>
      <path d="M 51.421875 0 
L 42.28125 0 
L 42.28125 5.8125 
Q 41.0625 4.984375 38.984375 3.484375 
Q 36.921875 2 34.96875 1.125 
Q 32.671875 0 29.6875 -0.75 
Q 26.703125 -1.515625 22.703125 -1.515625 
Q 15.328125 -1.515625 10.203125 3.359375 
Q 5.078125 8.25 5.078125 15.828125 
Q 5.078125 22.015625 7.734375 25.84375 
Q 10.40625 29.6875 15.328125 31.890625 
Q 20.3125 34.078125 27.296875 34.859375 
Q 34.28125 35.640625 42.28125 36.03125 
L 42.28125 37.453125 
Q 42.28125 40.578125 41.1875 42.625 
Q 40.09375 44.671875 38.03125 45.84375 
Q 36.078125 46.96875 33.34375 47.359375 
Q 30.609375 47.75 27.640625 47.75 
Q 24.03125 47.75 19.578125 46.796875 
Q 15.140625 45.84375 10.40625 44.046875 
L 9.90625 44.046875 
L 9.90625 53.375 
Q 12.59375 54.109375 17.671875 54.984375 
Q 22.75 55.859375 27.6875 55.859375 
Q 33.453125 55.859375 37.71875 54.90625 
Q 42 53.953125 45.125 51.65625 
Q 48.1875 49.421875 49.796875 45.84375 
Q 51.421875 42.28125 51.421875 37.015625 
z
M 42.28125 13.421875 
L 42.28125 28.609375 
Q 38.09375 28.375 32.390625 27.875 
Q 26.703125 27.390625 23.390625 26.46875 
Q 19.4375 25.34375 16.984375 22.96875 
Q 14.546875 20.609375 14.546875 16.453125 
Q 14.546875 11.765625 17.375 9.390625 
Q 20.21875 7.03125 26.03125 7.03125 
Q 30.859375 7.03125 34.859375 8.90625 
Q 38.875 10.796875 42.28125 13.421875 
z
" id="Verdana-97"/>
      <path d="M 37.359375 0.484375 
Q 34.765625 -0.203125 31.703125 -0.640625 
Q 28.65625 -1.078125 26.265625 -1.078125 
Q 17.921875 -1.078125 13.578125 3.40625 
Q 9.234375 7.90625 9.234375 17.828125 
L 9.234375 46.828125 
L 3.03125 46.828125 
L 3.03125 54.546875 
L 9.234375 54.546875 
L 9.234375 70.21875 
L 18.40625 70.21875 
L 18.40625 54.546875 
L 37.359375 54.546875 
L 37.359375 46.828125 
L 18.40625 46.828125 
L 18.40625 21.96875 
Q 18.40625 17.671875 18.59375 15.25 
Q 18.796875 12.84375 19.96875 10.75 
Q 21.046875 8.796875 22.921875 7.890625 
Q 24.8125 6.984375 28.65625 6.984375 
Q 30.90625 6.984375 33.34375 7.640625 
Q 35.796875 8.296875 36.859375 8.734375 
L 37.359375 8.734375 
z
" id="Verdana-116"/>
      <path d="M 18.890625 63.671875 
L 8.546875 63.671875 
L 8.546875 73.1875 
L 18.890625 73.1875 
z
M 18.3125 0 
L 9.125 0 
L 9.125 54.546875 
L 18.3125 54.546875 
z
" id="Verdana-105"/>
      <path d="M 55.515625 27.25 
Q 55.515625 13.921875 48.671875 6.203125 
Q 41.84375 -1.515625 30.375 -1.515625 
Q 18.796875 -1.515625 11.984375 6.203125 
Q 5.171875 13.921875 5.171875 27.25 
Q 5.171875 40.578125 11.984375 48.3125 
Q 18.796875 56.0625 30.375 56.0625 
Q 41.84375 56.0625 48.671875 48.3125 
Q 55.515625 40.578125 55.515625 27.25 
z
M 46.046875 27.25 
Q 46.046875 37.84375 41.890625 42.984375 
Q 37.75 48.140625 30.375 48.140625 
Q 22.90625 48.140625 18.78125 42.984375 
Q 14.65625 37.84375 14.65625 27.25 
Q 14.65625 17 18.796875 11.6875 
Q 22.953125 6.390625 30.375 6.390625 
Q 37.703125 6.390625 41.875 11.640625 
Q 46.046875 16.890625 46.046875 27.25 
z
" id="Verdana-111"/>
      <path d="M 48 15.71875 
Q 48 8.25 41.8125 3.46875 
Q 35.640625 -1.3125 24.953125 -1.3125 
Q 18.890625 -1.3125 13.84375 0.125 
Q 8.796875 1.5625 5.375 3.265625 
L 5.375 13.578125 
L 5.859375 13.578125 
Q 10.203125 10.296875 15.515625 8.375 
Q 20.84375 6.453125 25.734375 6.453125 
Q 31.78125 6.453125 35.203125 8.40625 
Q 38.625 10.359375 38.625 14.546875 
Q 38.625 17.78125 36.765625 19.4375 
Q 34.90625 21.09375 29.640625 22.265625 
Q 27.6875 22.703125 24.53125 23.28125 
Q 21.390625 23.875 18.796875 24.5625 
Q 11.625 26.46875 8.609375 30.15625 
Q 5.609375 33.84375 5.609375 39.203125 
Q 5.609375 42.578125 7 45.546875 
Q 8.40625 48.53125 11.234375 50.875 
Q 13.96875 53.171875 18.1875 54.515625 
Q 22.40625 55.859375 27.640625 55.859375 
Q 32.515625 55.859375 37.515625 54.65625 
Q 42.53125 53.46875 45.84375 51.765625 
L 45.84375 41.9375 
L 45.359375 41.9375 
Q 41.84375 44.53125 36.8125 46.3125 
Q 31.78125 48.09375 26.953125 48.09375 
Q 21.921875 48.09375 18.453125 46.15625 
Q 14.984375 44.234375 14.984375 40.4375 
Q 14.984375 37.0625 17.09375 35.359375 
Q 19.140625 33.640625 23.734375 32.5625 
Q 26.265625 31.984375 29.40625 31.390625 
Q 32.5625 30.8125 34.671875 30.328125 
Q 41.0625 28.859375 44.53125 25.296875 
Q 48 21.6875 48 15.71875 
z
" id="Verdana-115"/>
     </defs>
     <g transform="translate(205.879531 335.793375)scale(0.1 -0.1)">
      <use xlink:href="#Verdana-71"/>
      <use x="77.539062" xlink:href="#Verdana-101"/>
      <use x="137.109375" xlink:href="#Verdana-110"/>
      <use x="200.390625" xlink:href="#Verdana-101"/>
      <use x="259.960938" xlink:href="#Verdana-114"/>
      <use x="302.621094" xlink:href="#Verdana-97"/>
      <use x="362.679688" xlink:href="#Verdana-116"/>
      <use x="402.083984" xlink:href="#Verdana-105"/>
      <use x="429.525391" xlink:href="#Verdana-111"/>
      <use x="490.21875" xlink:href="#Verdana-110"/>
      <use x="553.5" xlink:href="#Verdana-115"/>
     </g>
    </g>
   </g>
   <g id="matplotlib.axis_2">
    <g id="ytick_1">
     <g id="line2d_9">
      <defs>
       <path d="M 0 0 
L -3.5 0 
" id="m67a838fe01" style="stroke:#000000;stroke-width:0.8;"/>
      </defs>
      <g>
       <use style="stroke:#000000;stroke-width:0.8;" x="57.6" xlink:href="#m67a838fe01" y="295.488"/>
      </g>
     </g>
     <g id="text_10">
      <!-- 0 -->
      <g transform="translate(44.242188 299.287219)scale(0.1 -0.1)">
       <use xlink:href="#Verdana-48"/>
      </g>
     </g>
    </g>
    <g id="ytick_2">
     <g id="line2d_10">
      <g>
       <use style="stroke:#000000;stroke-width:0.8;" x="57.6" xlink:href="#m67a838fe01" y="247.104"/>
      </g>
     </g>
     <g id="text_11">
      <!-- 1 -->
      <g transform="translate(44.242188 250.903219)scale(0.1 -0.1)">
       <use xlink:href="#Verdana-49"/>
      </g>
     </g>
    </g>
    <g id="ytick_3">
     <g id="line2d_11">
      <g>
       <use style="stroke:#000000;stroke-width:0.8;" x="57.6" xlink:href="#m67a838fe01" y="198.72"/>
      </g>
     </g>
     <g id="text_12">
      <!-- 2 -->
      <g transform="translate(44.242188 202.519219)scale(0.1 -0.1)">
       <use xlink:href="#Verdana-50"/>
      </g>
     </g>
    </g>
    <g id="ytick_4">
     <g id="line2d_12">
      <g>
       <use style="stroke:#000000;stroke-width:0.8;" x="57.6" xlink:href="#m67a838fe01" y="150.336"/>
      </g>
     </g>
     <g id="text_13">
      <!-- 3 -->
      <defs>
       <path d="M 50.6875 35.015625 
Q 53.03125 32.90625 54.546875 29.734375 
Q 56.0625 26.5625 56.0625 21.53125 
Q 56.0625 16.546875 54.25 12.390625 
Q 52.4375 8.25 49.171875 5.171875 
Q 45.515625 1.765625 40.546875 0.125 
Q 35.59375 -1.515625 29.6875 -1.515625 
Q 23.640625 -1.515625 17.78125 -0.0625 
Q 11.921875 1.375 8.15625 3.078125 
L 8.15625 13.28125 
L 8.890625 13.28125 
Q 13.03125 10.546875 18.640625 8.734375 
Q 24.265625 6.9375 29.5 6.9375 
Q 32.5625 6.9375 36.03125 7.953125 
Q 39.5 8.984375 41.65625 10.984375 
Q 43.890625 13.140625 44.984375 15.71875 
Q 46.09375 18.3125 46.09375 22.265625 
Q 46.09375 26.171875 44.84375 28.734375 
Q 43.609375 31.296875 41.40625 32.765625 
Q 39.203125 34.28125 36.078125 34.84375 
Q 32.953125 35.40625 29.34375 35.40625 
L 24.953125 35.40625 
L 24.953125 43.5 
L 28.375 43.5 
Q 35.796875 43.5 40.203125 46.59375 
Q 44.625 49.703125 44.625 55.671875 
Q 44.625 58.296875 43.5 60.265625 
Q 42.390625 62.25 40.375 63.53125 
Q 38.28125 64.796875 35.890625 65.28125 
Q 33.5 65.765625 30.46875 65.765625 
Q 25.828125 65.765625 20.59375 64.109375 
Q 15.375 62.453125 10.75 59.421875 
L 10.25 59.421875 
L 10.25 69.625 
Q 13.71875 71.34375 19.5 72.78125 
Q 25.296875 74.21875 30.71875 74.21875 
Q 36.03125 74.21875 40.078125 73.234375 
Q 44.140625 72.265625 47.40625 70.125 
Q 50.921875 67.78125 52.734375 64.453125 
Q 54.546875 61.140625 54.546875 56.6875 
Q 54.546875 50.640625 50.265625 46.125 
Q 46 41.609375 40.1875 40.4375 
L 40.1875 39.75 
Q 42.53125 39.359375 45.546875 38.109375 
Q 48.578125 36.859375 50.6875 35.015625 
z
" id="Verdana-51"/>
      </defs>
      <g transform="translate(44.242188 154.135219)scale(0.1 -0.1)">
       <use xlink:href="#Verdana-51"/>
      </g>
     </g>
    </g>
    <g id="ytick_5">
     <g id="line2d_13">
      <g>
       <use style="stroke:#000000;stroke-width:0.8;" x="57.6" xlink:href="#m67a838fe01" y="101.952"/>
      </g>
     </g>
     <g id="text_14">
      <!-- 4 -->
      <defs>
       <path d="M 58.734375 20.453125 
L 47.953125 20.453125 
L 47.953125 0 
L 38.578125 0 
L 38.578125 20.453125 
L 3.765625 20.453125 
L 3.765625 31.6875 
L 38.96875 72.703125 
L 47.953125 72.703125 
L 47.953125 28.265625 
L 58.734375 28.265625 
z
M 38.578125 28.265625 
L 38.578125 61.078125 
L 10.40625 28.265625 
z
" id="Verdana-52"/>
      </defs>
      <g transform="translate(44.242188 105.751219)scale(0.1 -0.1)">
       <use xlink:href="#Verdana-52"/>
      </g>
     </g>
    </g>
    <g id="ytick_6">
     <g id="line2d_14">
      <g>
       <use style="stroke:#000000;stroke-width:0.8;" x="57.6" xlink:href="#m67a838fe01" y="53.568"/>
      </g>
     </g>
     <g id="text_15">
      <!-- 5 -->
      <g transform="translate(44.242188 57.367219)scale(0.1 -0.1)">
       <use xlink:href="#Verdana-53"/>
      </g>
     </g>
    </g>
    <g id="text_16">
     <!-- Size per Species -->
     <defs>
      <path d="M 62.59375 20.75 
Q 62.59375 16.5 60.609375 12.34375 
Q 58.640625 8.203125 55.078125 5.328125 
Q 51.171875 2.203125 45.96875 0.4375 
Q 40.765625 -1.3125 33.453125 -1.3125 
Q 25.59375 -1.3125 19.3125 0.140625 
Q 13.03125 1.609375 6.546875 4.5 
L 6.546875 16.609375 
L 7.234375 16.609375 
Q 12.75 12.015625 19.96875 9.515625 
Q 27.203125 7.03125 33.546875 7.03125 
Q 42.53125 7.03125 47.53125 10.390625 
Q 52.546875 13.765625 52.546875 19.390625 
Q 52.546875 24.21875 50.171875 26.515625 
Q 47.796875 28.8125 42.96875 30.078125 
Q 39.3125 31.0625 35.03125 31.6875 
Q 30.765625 32.328125 25.984375 33.296875 
Q 16.3125 35.359375 11.640625 40.3125 
Q 6.984375 45.265625 6.984375 53.21875 
Q 6.984375 62.359375 14.6875 68.1875 
Q 22.40625 74.03125 34.28125 74.03125 
Q 41.9375 74.03125 48.328125 72.5625 
Q 54.734375 71.09375 59.671875 68.953125 
L 59.671875 57.515625 
L 58.984375 57.515625 
Q 54.828125 61.03125 48.0625 63.34375 
Q 41.3125 65.671875 34.234375 65.671875 
Q 26.46875 65.671875 21.75 62.453125 
Q 17.046875 59.234375 17.046875 54.15625 
Q 17.046875 49.609375 19.390625 47.015625 
Q 21.734375 44.4375 27.640625 43.0625 
Q 30.765625 42.390625 36.515625 41.40625 
Q 42.28125 40.4375 46.296875 39.40625 
Q 54.390625 37.25 58.484375 32.90625 
Q 62.59375 28.5625 62.59375 20.75 
z
" id="Verdana-83"/>
      <path d="M 48.578125 0 
L 4.546875 0 
L 4.546875 6.78125 
L 36.328125 46.875 
L 5.21875 46.875 
L 5.21875 54.546875 
L 47.75 54.546875 
L 47.75 48 
L 15.828125 7.765625 
L 48.578125 7.765625 
z
" id="Verdana-122"/>
      <path id="Verdana-32"/>
      <path d="M 57.03125 27.9375 
Q 57.03125 21.296875 55.125 15.796875 
Q 53.21875 10.296875 49.75 6.5 
Q 46.53125 2.875 42.15625 0.890625 
Q 37.796875 -1.078125 32.90625 -1.078125 
Q 28.65625 -1.078125 25.21875 -0.140625 
Q 21.78125 0.78125 18.21875 2.734375 
L 18.21875 -20.125 
L 9.03125 -20.125 
L 9.03125 54.546875 
L 18.21875 54.546875 
L 18.21875 48.828125 
Q 21.875 51.90625 26.4375 53.984375 
Q 31 56.0625 36.1875 56.0625 
Q 46.046875 56.0625 51.53125 48.609375 
Q 57.03125 41.15625 57.03125 27.9375 
z
M 47.5625 27.6875 
Q 47.5625 37.546875 44.1875 42.421875 
Q 40.828125 47.3125 33.84375 47.3125 
Q 29.890625 47.3125 25.875 45.59375 
Q 21.875 43.890625 18.21875 41.109375 
L 18.21875 10.203125 
Q 22.125 8.453125 24.921875 7.8125 
Q 27.734375 7.171875 31.296875 7.171875 
Q 38.96875 7.171875 43.265625 12.34375 
Q 47.5625 17.53125 47.5625 27.6875 
z
" id="Verdana-112"/>
      <path d="M 49.359375 3.421875 
Q 44.78125 1.21875 40.65625 0 
Q 36.53125 -1.21875 31.890625 -1.21875 
Q 25.984375 -1.21875 21.046875 0.515625 
Q 16.109375 2.25 12.59375 5.765625 
Q 9.03125 9.28125 7.078125 14.640625 
Q 5.125 20.015625 5.125 27.203125 
Q 5.125 40.578125 12.46875 48.1875 
Q 19.828125 55.8125 31.890625 55.8125 
Q 36.578125 55.8125 41.09375 54.484375 
Q 45.609375 53.171875 49.359375 51.265625 
L 49.359375 41.0625 
L 48.875 41.0625 
Q 44.671875 44.34375 40.203125 46.09375 
Q 35.75 47.859375 31.5 47.859375 
Q 23.6875 47.859375 19.171875 42.609375 
Q 14.65625 37.359375 14.65625 27.203125 
Q 14.65625 17.328125 19.0625 12.03125 
Q 23.484375 6.734375 31.5 6.734375 
Q 34.28125 6.734375 37.15625 7.46875 
Q 40.046875 8.203125 42.328125 9.375 
Q 44.34375 10.40625 46.09375 11.546875 
Q 47.859375 12.703125 48.875 13.53125 
L 49.359375 13.53125 
z
" id="Verdana-99"/>
     </defs>
     <g transform="translate(38.229687 215.7405)rotate(-90)scale(0.1 -0.1)">
      <use xlink:href="#Verdana-83"/>
      <use x="68.359375" xlink:href="#Verdana-105"/>
      <use x="95.800781" xlink:href="#Verdana-122"/>
      <use x="148.339844" xlink:href="#Verdana-101"/>
      <use x="207.910156" xlink:href="#Verdana-32"/>
      <use x="243.066406" xlink:href="#Verdana-112"/>
      <use x="305.371094" xlink:href="#Verdana-101"/>
      <use x="364.941406" xlink:href="#Verdana-114"/>
      <use x="407.617188" xlink:href="#Verdana-32"/>
      <use x="442.773438" xlink:href="#Verdana-83"/>
      <use x="511.132812" xlink:href="#Verdana-112"/>
      <use x="573.4375" xlink:href="#Verdana-101"/>
      <use x="633.007812" xlink:href="#Verdana-99"/>
      <use x="685.107422" xlink:href="#Verdana-105"/>
      <use x="712.548828" xlink:href="#Verdana-101"/>
      <use x="772.119141" xlink:href="#Verdana-115"/>
     </g>
    </g>
   </g>
   <g id="patch_3">
    <path d="M 57.6 307.584 
L 57.6 41.472 
" style="fill:none;stroke:#000000;stroke-linecap:square;stroke-linejoin:miter;stroke-width:0.8;"/>
   </g>
   <g id="patch_4">
    <path d="M 414.72 307.584 
L 414.72 41.472 
" style="fill:none;stroke:#000000;stroke-linecap:square;stroke-linejoin:miter;stroke-width:0.8;"/>
   </g>
   <g id="patch_5">
    <path d="M 57.6 307.584 
L 414.72 307.584 
" style="fill:none;stroke:#000000;stroke-linecap:square;stroke-linejoin:miter;stroke-width:0.8;"/>
   </g>
   <g id="patch_6">
    <path d="M 57.6 41.472 
L 414.72 41.472 
" style="fill:none;stroke:#000000;stroke-linecap:square;stroke-linejoin:miter;stroke-width:0.8;"/>
   </g>
   <g id="text_17">
    <!-- Speciation -->
    <g transform="translate(204.920625 35.472)scale(0.12 -0.12)">
     <use xlink:href="#Verdana-83"/>
     <use x="68.359375" xlink:href="#Verdana-112"/>
     <use x="130.664062" xlink:href="#Verdana-101"/>
     <use x="190.234375" xlink:href="#Verdana-99"/>
     <use x="242.333984" xlink:href="#Verdana-105"/>
     <use x="269.775391" xlink:href="#Verdana-97"/>
     <use x="329.833984" xlink:href="#Verdana-116"/>
     <use x="369.238281" xlink:href="#Verdana-105"/>
     <use x="396.679688" xlink:href="#Verdana-111"/>
     <use x="457.373047" xlink:href="#Verdana-110"/>
    </g>
   </g>
  </g>
 </g>
 <defs>
  <clipPath id="pcf61be2515">
   <rect height="266.112" width="357.12" x="57.6" y="41.472"/>
  </clipPath>
 </defs>
</svg>
